<?xml version="1.0" encoding="utf-8"?>
<!-- Generator: Adobe Illustrator 23.1.1, SVG Export Plug-In . SVG Version: 6.00 Build 0)  -->
<svg version="1.1" id="Layer_1" xmlns="http://www.w3.org/2000/svg" xmlns:xlink="http://www.w3.org/1999/xlink" x="0px" y="0px"
	 viewBox="0 0 44.1 15.8" style="enable-background:new 0 0 44.1 15.8;" xml:space="preserve">
<style type="text/css">
	.st0{fill:#FFFFFF;}
</style>
<title>Asset 1</title>
<g>
	<g id="Front">
		<g id="Layer_23_copy">
			<polygon class="st0" points="44.1,0 26.8,0 26.8,3.2 32.6,3.2 32.6,15.8 38.2,15.8 38.2,3.2 44.1,3.2 			"/>
			<polygon class="st0" points="32,12.7 23.4,12.7 23.4,0 17.8,0 17.8,15.8 32,15.8 			"/>
			<path class="st0" d="M17.2,10.9c0-1.6-0.9-3-2.2-3.8c0.6-0.7,1-1.6,0.9-2.5C16,2.1,13.4,0,10.1,0H0v15.8h11.5
				C14.7,15.7,17.2,13.6,17.2,10.9z M9.2,6H5.1V3.2h4.2c1.1,0,1.9,0.6,1.9,1.4C11.1,5.5,10.2,6.2,9.2,6L9.2,6z M5.1,9.2H10
				c1.1-0.1,2.1,0.6,2.2,1.7c0,0,0,0,0,0c-0.1,1.1-1.1,1.9-2.2,1.7c0,0,0,0,0,0H5.1V9.2z"/>
		</g>
	</g>
</g>
</svg>
